<?xml version="1.0" encoding="utf-8"?>
<!-- Generator: Adobe Illustrator 16.0.0, SVG Export Plug-In . SVG Version: 6.00 Build 0)  -->
<!DOCTYPE svg PUBLIC "-//W3C//DTD SVG 1.1//EN" "http://www.w3.org/Graphics/SVG/1.1/DTD/svg11.dtd">
<svg version="1.1" id="Layer_1" xmlns="http://www.w3.org/2000/svg" xmlns:xlink="http://www.w3.org/1999/xlink" x="0px" y="0px"
	 width="377px" height="306px" viewBox="-12.5 -12.5 377 306" enable-background="new -12.5 -12.5 377 306" xml:space="preserve">
<circle display="none" cx="256" cy="256" r="256"/>
<path display="none" fill="#0E0E0E" d="M256,514C114.615,514,0,399.385,0,258S114.615,2,256,2s256,114.615,256,256
	S397.385,514,256,514z M294.523,213.98C284.617,164.625,232.912,127,170.617,127C101.241,127,45,173.665,45,231.228
	c0,32.405,17.823,61.356,45.779,80.473c7.606,5.201-1.609,23.031-7.622,34.637c-3.577,6.903,6.336,5.125,6.336,5.125
	s34.158-23.27,39.535-21.855c13.111,3.449,27.013,5.849,41.589,5.849c1.875,0,3.741-0.034,5.596-0.101l0.325-0.086
	c-2.747-8.098-4.216-16.631-4.216-25.442c0-52.531,52.169-95.116,116.524-95.116c1.93,0,3.848,0.038,5.756,0.114L294.523,213.98z
	 M287.141,222.685c-59.018,0-106.861,39.525-106.861,88.281c0,48.757,47.843,88.28,106.861,88.28
	c14.564,0,28.448-2.407,41.101-6.766c2.85-0.982,26.481,14.16,26.481,14.16s10.183,7.636,6.079-4.518
	c-3.278-9.712-7.45-21.8-4.76-23.676C379.256,362.253,394,338.032,394,310.966C394,262.21,346.157,222.685,287.141,222.685z
	 M324.655,296.727c-7.534,0-13.643-6.119-13.643-13.668c0-7.551,6.108-13.67,13.643-13.67s13.641,6.119,13.641,13.67
	C338.296,290.607,332.189,296.727,324.655,296.727z M254.173,296.727c-7.534,0-13.642-6.119-13.642-13.668
	c0-7.551,6.107-13.67,13.642-13.67s13.642,6.119,13.642,13.67C267.814,290.607,261.707,296.727,254.173,296.727z M213.248,214.711
	c-9.418,0-17.053-7.65-17.053-17.086c0-9.437,7.635-17.087,17.053-17.087c9.417,0,17.052,7.65,17.052,17.087
	C230.3,207.061,222.665,214.711,213.248,214.711z M129.124,214.711c-9.418,0-17.052-7.65-17.052-17.086
	c0-9.437,7.634-17.087,17.052-17.087c9.417,0,17.052,7.65,17.052,17.087C146.176,207.061,138.541,214.711,129.124,214.711z"/>
<path display="none" d="M436.999,75.012c99.96,99.96,99.96,262.027,0,361.987s-262.027,99.96-361.987,0"/>
<g>
	<path display="none" fill-rule="evenodd" clip-rule="evenodd" fill="#FFFFFF" d="M0.536,514.436c0-171.246,0-342.493,0-513.837
		c171.169,0,342.374,0,513.739,0c0,171.213,0,342.525,0,513.837C343.111,514.436,171.842,514.436,0.536,514.436z M257.365,513.169
		c140.869,0.052,255.634-114.51,255.804-255.35C513.34,116.813,398.56,1.85,257.566,1.809
		C116.744,1.768,1.946,116.362,1.809,257.113C1.672,398.188,116.377,513.118,257.365,513.169z"/>
	<path display="none" fill-rule="evenodd" clip-rule="evenodd" d="M257.365,513.169C116.377,513.118,1.672,398.188,1.809,257.113
		C1.946,116.362,116.744,1.768,257.566,1.809C398.56,1.85,513.34,116.813,513.169,257.819
		C512.999,398.659,398.234,513.221,257.365,513.169z M296.45,214.193c-0.503-2.27-0.868-4.345-1.424-6.369
		c-6.742-24.577-21.589-43.37-42.337-57.458c-33.245-22.57-70.053-28.701-109.168-21.515c-27.925,5.129-52.396,17.4-71.701,38.565
		c-21.556,23.634-30.43,51.294-23.448,82.96c5.444,24.691,20.012,43.54,39.973,58.505c6.628,4.969,7.817,7.625,4.996,15.705
		c-2.401,6.877-5.83,13.388-8.551,20.162c-0.65,1.618-0.983,4.832-0.271,5.242c1.799,1.035,4.316,1.299,6.466,1.081
		c1.485-0.15,2.823-1.642,4.25-2.493c9.571-5.707,19.051-11.58,28.794-16.98c2.413-1.338,5.784-1.876,8.537-1.493
		c7.386,1.025,14.625,3.147,22.018,4.082c7.615,0.964,15.343,1.039,23.631,1.54c-0.529-2.616-0.731-3.898-1.05-5.15
		c-6.242-24.496-2.469-47.365,12.224-67.906c20.462-28.609,49.582-42.399,83.665-46.889
		C280.591,214.79,288.25,214.724,296.45,214.193z M395.799,311.886c-0.324-25.535-10.515-45.458-28.528-61.468
		c-20.598-18.304-45.133-26.902-72.454-28.344c-28.424-1.502-54.539,5.289-77.518,22.188c-22.395,16.47-36.098,38.273-35.907,66.793
		c0.173,25.853,12.071,46.587,31.995,62.23c33.202,26.069,70.756,31.193,110.917,20.476c4.698-1.253,8.669-1.233,12.792,1.316
		c6.794,4.199,13.66,8.288,20.6,12.24c1.298,0.739,3.082,0.622,4.643,0.9c0.222-1.683,0.969-3.502,0.571-5.023
		c-1.383-5.303-3.032-10.548-4.825-15.729c-1.914-5.53-0.813-9.159,4.233-13.071C382.965,358.388,395.034,337.532,395.799,311.886z"
		/>
	<path fill-rule="evenodd" clip-rule="evenodd" fill="#FFFFFF" d="M250.419,88.19c-8.2,0.531-15.859,0.597-23.396,1.59
		c-34.083,4.49-63.203,18.279-83.665,46.889c-14.693,20.541-18.465,43.41-12.224,67.906c0.319,1.252,0.521,2.534,1.05,5.15
		c-8.289-0.501-16.016-0.576-23.631-1.54c-7.393-0.935-14.631-3.057-22.018-4.082c-2.753-0.383-6.125,0.155-8.537,1.493
		c-9.743,5.4-19.223,11.273-28.794,16.98c-1.428,0.852-2.766,2.343-4.25,2.493c-2.15,0.218-4.667-0.046-6.466-1.081
		c-0.712-0.41-0.379-3.624,0.271-5.242c2.722-6.774,6.15-13.285,8.551-20.162c2.821-8.08,1.632-10.736-4.996-15.705
		c-19.961-14.966-34.529-33.814-39.973-58.505c-6.982-31.666,1.893-59.326,23.448-82.96C45.095,20.25,69.565,7.979,97.49,2.85
		c39.116-7.186,75.924-1.056,109.168,21.515c20.748,14.088,35.595,32.881,42.337,57.458
		C249.551,83.845,249.917,85.921,250.419,88.19z M84.551,54.637c-9.175,0.001-16.554,7.219-16.695,16.332
		c-0.14,8.975,7.306,16.45,16.477,16.545c9.49,0.099,16.924-7.223,16.838-16.581C101.086,61.786,93.793,54.636,84.551,54.637z
		 M168.651,54.637c-9.298,0.004-16.378,7.042-16.449,16.354c-0.071,9.303,6.971,16.447,16.281,16.52
		c9.539,0.075,16.781-7.117,16.715-16.597C185.133,61.72,177.928,54.633,168.651,54.637z"/>
	<path fill-rule="evenodd" clip-rule="evenodd" fill="#FFFFFF" d="M349.768,185.883c-0.764,25.646-12.834,46.502-33.48,62.509
		c-5.047,3.912-6.148,7.541-4.234,13.071c1.793,5.182,3.443,10.428,4.826,15.73c0.396,1.521-0.35,3.34-0.572,5.023
		c-1.561-0.279-3.344-0.162-4.643-0.9c-6.939-3.953-13.805-8.041-20.6-12.24c-4.123-2.551-8.094-2.57-12.791-1.316
		c-40.162,10.717-77.716,5.594-110.918-20.476c-19.923-15.644-31.821-36.378-31.995-62.23
		c-0.191-28.521,13.512-50.323,35.907-66.793c22.979-16.899,49.094-23.69,77.518-22.188c27.322,1.442,51.857,10.04,72.455,28.344
		C339.254,140.425,349.443,160.348,349.768,185.883z M293.291,156.558c0.02-7.548-5.635-13.229-13.18-13.239
		c-7.447-0.011-13.406,5.812-13.438,13.134c-0.031,7.294,5.947,13.252,13.336,13.291
		C287.48,169.782,293.271,164.035,293.291,156.558z M209.421,143.318c-7.568,0.072-13.054,5.726-12.98,13.377
		c0.072,7.51,5.862,13.164,13.361,13.049c7.37-0.112,13.333-6.184,13.193-13.434C222.853,148.943,216.902,143.247,209.421,143.318z"
		/>
	<path display="none" fill-rule="evenodd" clip-rule="evenodd" d="M130.582,180.639c9.242-0.001,16.535,7.149,16.62,16.296
		c0.086,9.358-7.348,16.68-16.838,16.581c-9.171-0.095-16.617-7.57-16.477-16.545C114.028,187.858,121.407,180.64,130.582,180.639z"
		/>
	<path display="none" fill-rule="evenodd" clip-rule="evenodd" d="M214.682,180.639c9.277-0.004,16.482,7.083,16.547,16.276
		c0.066,9.479-7.176,16.672-16.715,16.597c-9.311-0.072-16.352-7.217-16.281-16.52C198.303,187.682,205.383,180.643,214.682,180.639
		z"/>
	<path display="none" fill-rule="evenodd" clip-rule="evenodd" d="M339.321,282.561c-0.02,7.477-5.81,13.224-13.281,13.186
		c-7.388-0.039-13.366-5.997-13.335-13.291c0.031-7.322,5.989-13.145,13.438-13.134
		C333.687,269.332,339.342,275.013,339.321,282.561z"/>
	<path display="none" fill-rule="evenodd" clip-rule="evenodd" d="M255.452,269.32c7.481-0.071,13.432,5.625,13.574,12.992
		c0.14,7.25-5.823,13.321-13.193,13.434c-7.499,0.115-13.289-5.539-13.361-13.049C242.397,275.046,247.884,269.393,255.452,269.32z"
		/>
</g>
</svg>
