<?xml version="1.0" encoding="utf-8"?>
<!-- Generator: Adobe Illustrator 16.0.0, SVG Export Plug-In . SVG Version: 6.00 Build 0)  -->
<!DOCTYPE svg PUBLIC "-//W3C//DTD SVG 1.1//EN" "http://www.w3.org/Graphics/SVG/1.1/DTD/svg11.dtd">
<svg version="1.1" id="Layer_1" xmlns:sketch="http://www.bohemiancoding.com/sketch/ns"
	 xmlns="http://www.w3.org/2000/svg" xmlns:xlink="http://www.w3.org/1999/xlink" x="0px" y="0px" width="32px" height="32px"
	 viewBox="0 0 32 32" enable-background="new 0 0 32 32" xml:space="preserve">
<title></title>
<desc></desc>
<g id="Page-1">
	<g id="icon-24-key">
		<path id="key" fill="#FFFFFF" d="M18.532,19.468L14,24h-3v3H8v3H3v-5l10.532-10.532C13.188,13.544,13,12.544,13,11.5
			C13,6.806,16.806,3,21.5,3S30,6.806,30,11.5S26.194,20,21.5,20C20.456,20,19.456,19.813,18.532,19.468L18.532,19.468
			L18.532,19.468z M27,9c0-1.657-1.344-3-3-3s-3,1.343-3,3s1.344,3,3,3S27,10.657,27,9L27,9z"/>
	</g>
</g>
</svg>
