<?xml version="1.0" encoding="utf-8"?>
<!-- Generator: Adobe Illustrator 16.0.0, SVG Export Plug-In . SVG Version: 6.00 Build 0)  -->
<!DOCTYPE svg PUBLIC "-//W3C//DTD SVG 1.1//EN" "http://www.w3.org/Graphics/SVG/1.1/DTD/svg11.dtd">
<svg version="1.1" id="Layer_1" xmlns="http://www.w3.org/2000/svg" xmlns:xlink="http://www.w3.org/1999/xlink" x="0px" y="0px"
	 width="417px" height="494.984px" viewBox="0 0 417 494.984" enable-background="new 0 0 417 494.984" xml:space="preserve">
<g>
	<path fill-rule="evenodd" clip-rule="evenodd" fill="none" d="M201.497,494.936c-84.135,0-168.271-0.021-252.406,0.082
		c-3.224,0.004-4.199-0.377-4.196-3.988c0.121-168.438,0.117-336.875,0.021-505.313c-0.001-3.204,0.823-3.79,3.865-3.789
		c168.438,0.081,336.875,0.09,505.313-0.039c3.746-0.003,3.913,1.181,3.912,4.267c-0.079,168.271-0.085,336.542,0.028,504.813
		c0.002,3.49-0.778,4.063-4.131,4.058C369.769,494.911,285.633,494.936,201.497,494.936z M208.458,462.101
		c40.324,0,80.649,0.067,120.973-0.023c26.539-0.06,47.614-21.164,47.653-47.741c0.078-53.487,0.065-106.976,0.005-160.463
		c-0.028-25.03-18.491-45.464-43.363-47.896c-3.83-0.374-4.669-1.948-4.65-5.347c0.096-17.329,0.056-34.659,0.026-51.987
		c-0.008-4.661-0.163-9.295-0.8-13.948c-9.088-66.525-68.732-112.47-135.063-103.95C133.784,38.383,88.967,89.191,88.825,149.15
		c-0.041,17.163-0.035,34.326,0.011,51.487c0.008,2.96-0.346,4.839-4.121,5.332c-27.202,3.544-43.871,22.596-43.884,49.896
		c-0.025,52.154-0.018,104.309-0.004,156.463c0.008,29.217,20.497,49.755,49.659,49.771
		C129.81,462.12,169.134,462.104,208.458,462.101z"/>
	<path fill-rule="evenodd" clip-rule="evenodd" fill="#FFFFFF" d="M208.458,462.103c-39.324,0.001-78.648,0.018-117.972-0.004
		c-29.162-0.017-49.651-20.555-49.659-49.771c-0.014-52.154-0.021-104.309,0.004-156.463c0.013-27.3,16.682-46.351,43.884-49.896
		c3.775-0.492,4.129-2.372,4.121-5.332c-0.046-17.162-0.052-34.325-0.011-51.487c0.142-59.958,44.959-110.767,104.414-118.404
		c66.331-8.521,125.976,37.424,135.063,103.95c0.637,4.653,0.792,9.287,0.8,13.948c0.029,17.329,0.069,34.659-0.026,51.987
		c-0.019,3.399,0.82,4.973,4.65,5.347c24.872,2.431,43.335,22.865,43.363,47.896c0.061,53.487,0.073,106.976-0.005,160.463
		c-0.039,26.577-21.114,47.682-47.653,47.741C289.107,462.168,248.782,462.101,208.458,462.103z M208.771,205.804
		c22.16,0,44.321-0.015,66.481,0.019c3.051,0.004,5.673-0.018,5.562-4.3c-0.522-20.139,1.283-40.341-0.961-60.42
		c-3.97-35.511-34.342-63.784-72.715-62.735c-40.057,1.095-69.791,32.669-69.983,72.78c-0.078,16.161,0.141,32.326-0.108,48.484
		c-0.074,4.793,1.421,6.317,6.243,6.27C165.116,205.683,186.944,205.806,208.771,205.804z M201.139,354.415
		c0,5.665-0.049,11.33,0.014,16.995c0.067,6.089,3.382,10.291,7.926,10.207c4.527-0.084,7.674-4.253,7.704-10.435
		c0.052-10.663,0.184-21.331-0.062-31.987c-0.102-4.424,1.017-7.16,5.164-9.598c9.652-5.672,13.216-18.031,9.023-28.48
		c-4.208-10.49-15.3-16.541-26.256-14.325c-10.52,2.126-17.125,9.002-19.073,19.856c-1.648,9.176,2.95,18.724,11.908,23.907
		c2.685,1.554,3.758,3.356,3.683,6.366C201.022,342.749,201.127,348.584,201.139,354.415z"/>
	<path fill-rule="evenodd" clip-rule="evenodd" fill="none" d="M208.771,205.805c-21.828,0.001-43.656-0.122-65.481,0.096
		c-4.822,0.048-6.317-1.477-6.243-6.27c0.249-16.158,0.03-32.323,0.108-48.484c0.192-40.11,29.927-71.685,69.983-72.78
		c38.373-1.049,68.745,27.224,72.715,62.735c2.244,20.079,0.438,40.281,0.961,60.42c0.111,4.283-2.511,4.304-5.562,4.3
		C253.093,205.789,230.932,205.804,208.771,205.805z"/>
	<path fill-rule="evenodd" clip-rule="evenodd" fill="none" d="M201.133,354.415c-0.006-5.831-0.11-11.666,0.037-17.493
		c0.075-3.01-0.998-4.813-3.683-6.366c-8.958-5.184-13.556-14.731-11.908-23.907c1.949-10.854,8.554-17.73,19.073-19.856
		c10.956-2.216,22.048,3.835,26.256,14.325c4.192,10.449,0.629,22.809-9.023,28.48c-4.147,2.438-5.266,5.174-5.164,9.598
		c0.245,10.656,0.113,21.324,0.062,31.987c-0.03,6.182-3.177,10.351-7.704,10.435c-4.544,0.084-7.858-4.118-7.926-10.207
		C201.09,365.745,201.139,360.08,201.133,354.415z"/>
</g>
</svg>
