<?xml version="1.0" encoding="utf-8"?>
<!-- Generator: Adobe Illustrator 16.0.0, SVG Export Plug-In . SVG Version: 6.00 Build 0)  -->
<!DOCTYPE svg PUBLIC "-//W3C//DTD SVG 1.1//EN" "http://www.w3.org/Graphics/SVG/1.1/DTD/svg11.dtd">
<svg version="1.1" id="Layer_1" xmlns="http://www.w3.org/2000/svg" xmlns:xlink="http://www.w3.org/1999/xlink" x="0px" y="0px"
	 width="162px" height="156px" viewBox="0 0 162 156" enable-background="new 0 0 162 156" xml:space="preserve">
<g>
	<path fill-rule="evenodd" clip-rule="evenodd" fill="#FFFFFF" d="M19,77c0-2,0-4,0-6c3.5-1.285,6.311-4.364,10.466-3.959
		c3.001,0.292,5.486,0.011,6.34-3.772c0.846-3.748-0.859-5.367-3.893-6.926c-5.222-2.685-6.887-7.656-4.449-11.985
		c2.636-4.68,7.769-6.016,12.836-2.67c3.94,2.602,6.466,1.786,9.224-1.601c2.708-3.325-0.389-5.199-1.492-7.48
		c-2.252-4.658-1.028-9.651,3.265-12.111c3.921-2.248,8.936-0.779,11.606,3.447c0.71,1.124,1.234,2.364,1.918,3.507
		c1.374,2.292,3.4,1.636,5.314,1.011c1.612-0.526,4.151-0.314,3.818-2.989C73.313,20.324,75.67,16.192,78,12c3.333,0,6.666,0,10,0
		c1.385,3.618,4.568,6.576,3.959,10.929c-0.416,2.975,0.322,5.086,3.717,5.841c3.313,0.737,5.164-0.278,6.711-3.333
		c2.856-5.641,7.688-7.445,12.135-5.033c4.894,2.653,6.158,7.721,2.629,13.169c-2.469,3.811-1.41,6.124,1.594,8.805
		c3.219,2.871,5.186-0.074,7.443-1.202c4.711-2.354,9.553-1.328,12.16,2.875c2.505,4.035,1.049,9.155-3.431,11.929
		c-1.128,0.699-2.37,1.215-3.486,1.929c-2.173,1.389-1.57,3.513-1.093,5.392c0.425,1.673,0.705,4.001,3.236,3.667
		c5.135-0.678,9.242,1.729,13.426,4.034c0,2,0,4,0,6c-10.953-0.013-21.905-0.025-32.857-0.038
		c0.076-21.863-17.608-33.521-32.643-33.016c-13.64,0.459-30.594,11.229-30.661,33.013C40.226,76.973,29.613,76.986,19,77z"/>
	<path fill-rule="evenodd" clip-rule="evenodd" fill="#F1F1F1" d="M114.143,75.962C125.095,75.975,136.047,75.987,147,76
		c0,1.333,0,2.667,0,4c-3.572,1.533-6.811,4.213-10.969,3.821c-3.43-0.322-5.192,0.854-5.918,4.319
		c-0.689,3.294,0.716,4.783,3.408,6.213c5.684,3.018,7.475,7.678,5.074,12.19c-2.587,4.863-7.769,6.158-13.214,2.581
		c-3.861-2.537-6.104-1.336-8.788,1.604c-2.956,3.239,0.121,5.172,1.226,7.421c2.367,4.819,1.358,9.654-2.861,12.209
		c-4.112,2.489-9.108,1.034-11.947-3.515c-0.704-1.128-1.269-2.342-1.951-3.484c-1.231-2.059-3.196-1.588-4.909-1.101
		c-1.623,0.462-4.328,0.383-4.1,2.801C92.55,130.34,90.391,134.661,88,139c-3.334,0-6.667,0-10,0
		c-1.342-3.624-4.534-6.619-3.86-10.923c0.545-3.481-0.949-4.969-4.313-5.816c-3.423-0.863-4.759,0.632-6.177,3.274
		c-3.041,5.667-7.67,7.461-12.195,5.058c-4.859-2.58-6.159-7.769-2.581-13.212c2.541-3.864,1.326-6.1-1.606-8.782
		c-3.235-2.96-5.17,0.114-7.416,1.219c-4.813,2.368-9.636,1.368-12.205-2.85c-2.503-4.11-1.061-9.095,3.493-11.948
		c1.126-0.705,2.353-1.25,3.48-1.953c2.246-1.398,1.513-3.519,1.026-5.385c-0.432-1.66-0.605-3.952-3.184-3.739
		C27.44,84.358,23.183,82.351,19,80c0-1.333,0-2.667,0-4c10.613-0.014,21.226-0.027,31.839-0.041
		c2.172,18.023,14.988,30.092,31.907,30.046C99.286,105.959,112.117,93.681,114.143,75.962z"/>
	<path display="none" fill-rule="evenodd" clip-rule="evenodd" fill="#FDFDFD" d="M88,140c2.391-4.339,4.55-8.66,4.051-13.939
		c-0.229-2.418,2.477-2.339,4.1-2.801c1.713-0.487,3.678-0.958,4.909,1.101c0.683,1.143,1.247,2.356,1.951,3.484
		c2.839,4.549,7.835,6.004,11.947,3.515c4.22-2.555,5.229-7.39,2.861-12.209c-1.104-2.249-4.182-4.182-1.226-7.421
		c2.685-2.94,4.927-4.142,8.788-1.604c5.445,3.577,10.627,2.282,13.214-2.581c2.4-4.513,0.609-9.173-5.074-12.19
		c-2.692-1.43-4.098-2.919-3.408-6.213c0.726-3.465,2.488-4.642,5.918-4.319c4.158,0.392,7.396-2.288,10.969-3.821
		c0,18.667-0.056,37.334,0.066,56c0.016,2.502-0.564,3.083-3.066,3.066C125.334,139.944,106.666,140,88,140z"/>
	<path display="none" fill-rule="evenodd" clip-rule="evenodd" fill="#FEFEFE" d="M147,71c-4.184-2.305-8.291-4.712-13.426-4.034
		c-2.531,0.334-2.812-1.994-3.236-3.667c-0.478-1.879-1.08-4.003,1.093-5.392c1.116-0.714,2.358-1.229,3.486-1.929
		c4.479-2.773,5.936-7.894,3.431-11.929c-2.607-4.203-7.449-5.229-12.16-2.875c-2.258,1.128-4.225,4.073-7.443,1.202
		c-3.004-2.681-4.063-4.994-1.594-8.805c3.529-5.448,2.265-10.516-2.629-13.169c-4.447-2.412-9.278-0.607-12.135,5.033
		c-1.547,3.055-3.398,4.07-6.711,3.333c-3.395-0.755-4.133-2.866-3.717-5.841C92.568,18.576,89.385,15.618,88,12
		c18.666,0,37.334,0.056,56-0.066c2.502-0.017,3.082,0.564,3.066,3.066C146.944,33.666,147,52.333,147,71z"/>
	<path display="none" fill-rule="evenodd" clip-rule="evenodd" fill="#FDFDFD" d="M19,81c4.183,2.351,8.44,4.358,13.463,3.942
		c2.578-0.213,2.751,2.079,3.184,3.739c0.486,1.866,1.219,3.986-1.026,5.385c-1.128,0.703-2.354,1.248-3.48,1.953
		c-4.554,2.854-5.997,7.838-3.493,11.948c2.569,4.218,7.392,5.218,12.205,2.85c2.246-1.104,4.181-4.179,7.416-1.219
		c2.932,2.683,4.146,4.918,1.606,8.782c-3.578,5.443-2.278,10.632,2.581,13.212c4.525,2.403,9.155,0.609,12.195-5.058
		c1.418-2.643,2.754-4.138,6.177-3.274c3.363,0.848,4.858,2.335,4.313,5.816c-0.674,4.304,2.518,7.299,3.86,10.923
		c-18.667,0-37.333-0.056-56,0.066c-2.502,0.017-3.083-0.564-3.067-3.066C19.056,118.334,19,99.667,19,81z"/>
	<path display="none" fill-rule="evenodd" clip-rule="evenodd" fill="#FEFEFE" d="M78,12c-2.33,4.192-4.687,8.324-4.046,13.471
		c0.333,2.675-2.206,2.463-3.818,2.989c-1.914,0.625-3.94,1.281-5.314-1.011c-0.685-1.143-1.208-2.383-1.918-3.507
		c-2.67-4.227-7.685-5.695-11.606-3.447c-4.292,2.46-5.517,7.453-3.265,12.111c1.103,2.281,4.2,4.155,1.492,7.48
		c-2.758,3.387-5.284,4.202-9.224,1.601c-5.068-3.346-10.201-2.01-12.836,2.67c-2.438,4.329-0.772,9.301,4.449,11.985
		c3.033,1.559,4.739,3.178,3.893,6.926c-0.854,3.783-3.339,4.064-6.34,3.772C25.311,66.636,22.5,69.715,19,71
		c0-18.667,0.056-37.334-0.066-56c-0.016-2.502,0.565-3.083,3.067-3.066C40.667,12.056,59.333,12,78,12z"/>
	<path fill-rule="evenodd" clip-rule="evenodd" fill="#FFC5CE" d="M114.143,76.962c-2.025,17.719-14.856,29.997-31.396,30.043
		c-16.919,0.046-29.734-12.022-31.907-30.046C50.906,55.175,67.86,44.405,81.5,43.946C96.534,43.441,114.219,55.099,114.143,76.962z
		 M82.47,91.991c9.063,0.016,16.506-7.397,16.522-16.459c0.016-9.062-7.402-16.508-16.461-16.522
		c-9.063-0.016-16.508,7.403-16.522,16.461C65.995,84.534,73.41,91.976,82.47,91.991z"/>
	<path display="none" fill-rule="evenodd" clip-rule="evenodd" fill="#FCFCFC" d="M82.47,91.991
		c-9.06-0.016-16.475-7.457-16.461-16.521c0.014-9.058,7.46-16.477,16.522-16.461c9.059,0.015,16.477,7.461,16.461,16.522
		C98.976,84.594,91.533,92.007,82.47,91.991z"/>
</g>
</svg>
